<?xml version="1.0" standalone="no"?>
<!DOCTYPE svg PUBLIC "-//W3C//DTD SVG 20010904//EN"
 "http://www.w3.org/TR/2001/REC-SVG-20010904/DTD/svg10.dtd">
<svg version="1.0" xmlns="http://www.w3.org/2000/svg"
 width="400.000000pt" height="400.000000pt" viewBox="0 0 400.000000 400.000000"
 preserveAspectRatio="xMidYMid meet">
<metadata>
Created by potrace 1.14, written by Peter Selinger 2001-2017
</metadata>
<g transform="translate(0.000000,400.000000) scale(0.100000,-0.100000)"
fill="#000000" stroke="none">
<path d="M2427 3492 c-15 -9 -32 -31 -38 -49 -6 -18 -14 -33 -18 -33 -3 0 -11
-12 -17 -27 -17 -44 -97 -144 -168 -210 -71 -68 -134 -107 -184 -118 -60 -12
-77 -92 -33 -154 l20 -28 -96 3 c-53 2 -101 8 -106 13 -11 11 1 15 30 12 23
-3 82 28 97 51 14 22 24 74 25 136 1 22 4 22 80 21 86 -3 97 3 120 57 16 40
17 84 2 112 -12 22 -33 26 -118 24 l-31 -1 5 47 c2 26 0 59 -6 74 -24 62 -107
80 -169 37 -25 -18 -42 -66 -42 -120 l0 -35 -87 0 -88 1 -6 55 c-10 90 -44
125 -122 123 -33 -1 -47 -7 -70 -33 -27 -31 -29 -37 -23 -89 l6 -56 -57 -3
c-34 -1 -70 -10 -89 -22 l-33 -19 -38 37 c-97 93 -188 168 -219 183 -68 31
-149 -4 -171 -74 -21 -72 21 -150 102 -186 81 -36 235 -82 262 -79 20 2 34 -4
49 -21 17 -20 30 -24 75 -25 30 0 79 3 109 8 l55 8 2 -46 c3 -63 19 -120 40
-139 10 -8 36 -17 57 -19 22 -2 41 -9 44 -16 3 -11 -22 -12 -135 -7 -131 6
-139 6 -165 -15 -23 -18 -47 -77 -40 -102 18 -71 22 -188 8 -283 -11 -73 -10
-83 8 -117 22 -43 57 -59 101 -46 53 15 79 19 163 25 l82 6 0 -31 0 -30 -107
-1 c-123 -2 -157 -15 -186 -71 -24 -47 -18 -114 15 -146 27 -28 78 -37 116
-22 15 5 55 12 90 15 57 4 62 3 62 -15 0 -32 -17 -37 -120 -38 -147 -1 -181
-9 -213 -49 -15 -18 -28 -43 -30 -54 -4 -25 -17 -40 -17 -19 0 19 -33 58 -49
58 -30 0 -192 -108 -282 -187 -29 -26 -72 -87 -75 -108 -1 -5 -4 -25 -7 -44
-15 -94 91 -174 163 -124 71 50 249 290 253 341 2 29 4 28 22 -13 20 -49 72
-71 129 -55 88 24 119 30 125 24 8 -8 -65 -71 -109 -94 -19 -10 -60 -23 -90
-29 -77 -16 -100 -34 -100 -75 0 -105 105 -203 202 -190 44 6 88 24 88 36 0 5
4 7 9 4 12 -8 127 110 153 156 12 21 25 38 30 38 4 0 8 7 8 15 0 22 7 19 43
-22 18 -20 59 -58 92 -85 33 -26 69 -56 80 -66 52 -45 78 -60 93 -56 58 19 72
28 81 56 18 50 13 83 -20 129 -31 44 -167 178 -181 179 -5 0 -8 3 -8 8 0 4 32
5 71 2 131 -10 177 21 199 133 6 32 4 43 -15 65 -22 26 -23 26 -181 26 l-158
1 0 25 c0 25 0 25 99 25 88 0 104 3 131 22 57 40 84 152 46 186 -15 14 -41 17
-139 17 -127 0 -142 6 -126 46 5 14 16 15 67 10 191 -21 199 -20 226 9 24 26
25 30 26 183 0 107 4 164 13 180 7 13 13 37 13 53 1 31 12 46 23 30 18 -29 24
-655 10 -976 -13 -276 -12 -315 9 -358 11 -21 29 -45 41 -53 74 -49 140 -8
160 99 4 20 10 37 14 38 3 0 17 3 31 6 40 8 237 8 324 0 53 -5 102 -18 145
-37 60 -26 68 -27 98 -15 110 46 198 283 114 310 -11 3 -44 -1 -74 -10 -31 -9
-75 -17 -99 -17 -46 -2 -176 10 -187 16 -5 4 -7 164 -2 200 0 5 20 5 44 1 117
-22 200 22 208 111 8 97 -6 108 -146 108 l-100 1 0 95 c0 79 2 94 15 91 131
-32 221 23 224 136 1 67 -21 81 -131 81 -49 0 -93 1 -99 1 -8 1 -11 36 -9 109
l1 107 25 -3 c13 -2 44 -10 69 -17 103 -33 194 30 204 140 4 51 -10 81 -43 94
-14 5 -81 10 -148 10 -68 0 -135 0 -150 0 -25 1 -22 5 32 45 33 24 79 62 103
83 39 34 44 43 47 88 6 92 -30 138 -107 138 -52 0 -76 -24 -142 -142 -73 -131
-82 -164 -54 -198 8 -10 -6 -13 -63 -14 -80 -1 -132 1 -137 6 -2 2 8 20 22 42
61 93 134 240 139 281 11 78 -55 131 -116 94z m-681 -371 c17 -1 20 -7 19 -33
l-2 -33 -74 0 -74 0 -3 32 c-3 28 0 32 25 35 15 2 42 2 58 1 17 -1 39 -2 51
-2z m780 -372 c0 -52 -3 -101 -7 -109 -7 -15 -21 -16 -130 -11 -13 1 -15 16
-14 91 1 49 5 93 8 97 9 8 118 32 132 29 6 -2 10 -43 11 -97z m-935 -78 c5 -1
5 -93 0 -122 -1 -3 -24 -7 -52 -8 -27 -1 -53 -2 -57 -2 -33 -5 -34 3 -17 81 2
8 4 24 4 36 1 18 7 20 59 18 31 -1 60 -2 63 -3z m320 -23 c0 -13 1 -42 2 -66
2 -42 -7 -50 -47 -43 -4 1 -23 2 -42 3 l-34 1 0 64 0 63 60 0 c55 0 60 -2 61
-22z m619 -327 l0 -97 -72 2 c-40 1 -76 2 -79 3 -3 0 -5 36 -5 78 l1 77 41 16
c23 8 58 16 78 17 l36 2 0 -98z m1 -328 c5 -99 3 -186 -5 -190 -5 -3 -19 -7
-30 -9 -12 -1 -41 -7 -66 -13 -24 -5 -46 -8 -48 -6 -2 1 -3 36 -4 76 0 140 -1
135 35 146 17 5 51 10 75 12 34 1 42 -1 43 -16z"/>
<path d="M586 3318 c-88 -19 -125 -81 -102 -174 19 -81 107 -108 222 -69 54
18 78 19 107 4 28 -15 37 -28 37 -56 0 -28 -27 -37 -114 -35 -141 4 -189 -32
-188 -139 1 -50 25 -94 59 -108 43 -17 104 -19 147 -4 42 14 95 17 112 5 6 -4
16 -17 22 -28 8 -16 19 -20 39 -18 15 2 53 6 83 9 30 3 64 8 75 10 11 2 34 4
50 4 l30 1 0 68 c-1 75 -17 107 -122 248 -46 62 -61 75 -111 94 -149 60 -175
78 -206 148 -10 23 -26 42 -35 43 -9 1 -27 2 -41 3 -14 1 -42 -1 -64 -6z"/>
<path d="M3234 3320 c-50 -11 -128 -58 -197 -120 l-65 -57 38 -12 c20 -6 49
-23 63 -37 21 -21 29 -23 46 -15 27 15 64 14 108 -4 128 -51 228 1 225 117 -1
60 -22 95 -66 113 -40 17 -110 24 -152 15z"/>
<path d="M3114 2946 c-22 -134 -131 -218 -252 -196 -37 6 -41 5 -45 -17 -6
-30 -4 -31 68 -34 78 -3 109 -14 140 -50 32 -39 40 -89 25 -157 -20 -91 -111
-162 -207 -162 -20 0 -30 -5 -30 -15 0 -18 -7 -16 90 -20 43 -2 77 1 77 6 0
19 70 76 101 83 17 3 62 6 100 6 57 0 72 4 96 24 23 20 28 32 29 77 5 121 -73
172 -219 145 -51 -9 -72 57 -31 99 18 18 71 20 111 4 42 -16 124 -14 158 4 86
44 77 195 -12 232 -25 11 -63 15 -115 13 l-77 -2 -7 -40z"/>
<path d="M1045 2638 c-33 -4 -78 -10 -100 -13 -22 -3 -70 -8 -107 -12 -38 -3
-81 -14 -98 -25 -79 -47 -84 -220 -8 -267 11 -7 36 -12 56 -12 75 -1 402 153
426 200 21 39 13 101 -14 123 -24 19 -44 20 -155 6z"/>
<path d="M222 2421 c-134 -46 -164 -207 -49 -271 55 -31 109 -34 168 -8 60 25
110 19 133 -17 22 -33 11 -73 -20 -81 -13 -3 -52 -1 -86 5 -74 13 -119 3 -162
-34 -25 -22 -30 -34 -34 -85 -4 -55 -2 -61 26 -90 37 -36 78 -39 154 -10 61
23 87 25 123 8 18 -8 25 -19 25 -39 0 -35 -6 -38 -73 -42 -101 -6 -174 -83
-160 -168 13 -85 117 -125 206 -80 53 27 84 33 108 20 21 -11 63 -49 54 -49
-3 0 5 -17 18 -37 33 -54 85 -182 93 -231 6 -38 4 -43 -17 -50 -13 -5 -35 -6
-49 -2 -32 9 -98 5 -132 -8 -40 -16 -77 -72 -79 -118 -2 -59 -1 -62 32 -94 46
-44 88 -44 158 -2 63 38 124 33 141 -13 16 -43 5 -61 -67 -105 -40 -24 -54
-69 -39 -124 16 -54 54 -81 116 -80 63 1 109 29 134 82 20 40 51 60 83 54 7
-2 50 -20 95 -41 217 -99 361 -138 593 -158 101 -8 395 -8 500 1 222 18 387
61 583 152 53 25 105 46 117 48 21 3 55 -13 55 -27 0 -18 53 -85 76 -96 94
-43 184 -4 197 85 7 46 -16 89 -62 115 -67 37 -73 107 -11 127 37 12 81 2 111
-24 68 -60 172 -16 184 77 13 100 -91 175 -208 150 -41 -9 -64 -4 -71 16 -9
23 18 109 68 215 44 95 75 137 101 139 42 3 54 1 95 -18 83 -39 142 -32 190
24 29 33 32 41 26 82 -6 49 -29 87 -62 105 -10 6 -22 14 -25 19 -3 4 -30 10
-60 13 -77 7 -89 12 -89 38 0 55 72 72 151 36 97 -44 177 -12 181 72 3 58 -12
97 -48 125 -37 28 -77 32 -184 19 -62 -8 -77 -2 -83 35 -6 30 8 51 49 72 28
14 33 14 75 -5 58 -27 142 -28 188 -2 80 46 94 156 29 226 -42 46 -86 61 -173
61 -277 0 -461 -154 -579 -485 l-24 -66 53 5 c44 5 58 2 84 -16 48 -34 64 -75
58 -141 -7 -65 -27 -117 -68 -177 -64 -92 -131 -131 -209 -120 -36 5 -36 4
-59 -57 -152 -399 -492 -623 -931 -611 -74 2 -146 6 -160 9 -24 5 -80 19 -90
21 -199 50 -383 178 -504 348 -57 82 -87 136 -121 227 -16 41 -30 77 -31 78
-1 2 -16 -6 -33 -19 -64 -47 -201 -16 -251 58 -22 32 -25 47 -24 117 0 107 20
142 129 230 36 29 59 55 57 65 -5 30 -75 196 -100 236 -54 90 -69 107 -102
123 -41 19 -60 36 -85 74 -48 75 -287 128 -403 89z"/>
<path d="M1134 2375 c-16 -7 -60 -27 -97 -44 -37 -17 -72 -31 -77 -31 -13 0
-13 -10 5 -61 19 -52 67 -229 68 -246 1 -18 17 -16 53 6 20 12 45 18 72 16 32
-3 45 2 63 21 19 20 20 26 8 40 -8 10 -13 20 -12 23 2 3 0 21 -3 39 -4 19 0
53 11 84 16 50 16 52 -4 67 -11 9 -28 35 -39 58 -18 41 -19 41 -48 28z"/>
<path d="M2496 1418 c-58 -125 -122 -184 -241 -226 -81 -29 -109 -33 -260 -37
-234 -7 -397 41 -486 144 l-42 48 -41 -12 c-75 -22 -150 -3 -216 54 -19 17
-36 29 -38 27 -5 -6 57 -136 92 -190 41 -65 137 -163 199 -205 85 -58 201
-106 302 -126 125 -25 292 -25 401 1 43 10 81 18 84 19 20 3 136 55 185 84 76
44 202 171 246 247 40 70 88 178 94 217 6 30 20 27 -161 31 l-81 2 -37 -78z"/>
</g>
</svg>
